<svg width="119" height="83" viewBox="0 0 119 83" fill="none" xmlns="http://www.w3.org/2000/svg">
<path d="M116.097 13.0366C115.425 10.5322 114.106 8.2484 112.274 6.41366C110.441 4.57891 108.159 3.25763 105.656 2.58203C96.4404 0.103516 59.5 0.103516 59.5 0.103516C59.5 0.103516 22.5596 0.103515 13.3442 2.56885C10.8396 3.24225 8.55628 4.56281 6.72351 6.39789C4.89075 8.23297 3.57308 10.518 2.90283 13.0234C0.437499 22.252 0.4375 41.5 0.4375 41.5C0.4375 41.5 0.437499 60.7481 2.90283 69.9634C4.26074 75.0522 8.26855 79.0601 13.3442 80.418C22.5596 82.8965 59.5 82.8965 59.5 82.8965C59.5 82.8965 96.4404 82.8965 105.656 80.418C110.745 79.0601 114.739 75.0522 116.097 69.9634C118.562 60.7481 118.562 41.5 118.562 41.5C118.562 41.5 118.562 22.252 116.097 13.0366ZM47.7666 59.166V23.834L78.3525 41.3682L47.7666 59.166Z" fill="#FAE420"/>
</svg>
