<svg width="80" height="80" viewBox="0 0 80 80" fill="none" xmlns="http://www.w3.org/2000/svg">
<path d="M52.2768 0H27.7193C5.30931 0 -0.00319672 5.3125 -0.00319672 27.7225V52.28C-0.00319672 74.69 5.30931 80.0025 27.7193 80.0025H52.2768C74.6868 80.0025 79.9993 74.69 79.9993 52.28V27.7225C79.9993 5.3125 74.6343 0 52.2768 0ZM64.5818 57.07H58.7743C56.5743 57.07 55.8968 55.325 51.9393 51.315C48.5018 47.9825 46.9793 47.54 46.1318 47.54C44.9343 47.54 44.5943 47.8775 44.5943 49.52V54.7675C44.5943 56.175 44.1518 57.02 40.4268 57.02C34.2668 57.02 27.4318 53.295 22.6393 46.355C15.4118 36.185 13.4343 28.5675 13.4343 26.9925C13.4343 26.145 13.7718 25.3525 15.3993 25.3525H21.2193C22.6918 25.3525 23.2518 26.03 23.8243 27.605C26.7018 35.9125 31.4943 43.19 33.4718 43.19C34.2018 43.19 34.5393 42.8525 34.5393 40.99V32.41C34.3168 28.4525 32.2343 28.1125 32.2343 26.7075C32.2343 26.03 32.7943 25.3525 33.6918 25.3525H42.8443C44.0818 25.3525 44.5368 26.03 44.5368 27.4875V39.0625C44.5368 40.3125 45.0968 40.755 45.4343 40.755C46.1643 40.755 46.7893 40.3125 48.1418 38.9575C52.3218 34.27 55.3168 27.0425 55.3168 27.0425C55.7068 26.195 56.3843 25.4025 57.8568 25.4025H63.6768C65.4218 25.4025 65.8118 26.3 65.4218 27.55C64.6918 30.935 57.5693 40.9875 57.5693 40.9875C56.9568 42.0025 56.7218 42.445 57.5693 43.5775C58.1943 44.425 60.2268 46.1825 61.5793 47.7575C64.0668 50.5825 65.9793 52.9525 66.4893 54.5925C67.0618 56.22 66.2168 57.0675 64.5743 57.0675L64.5818 57.07Z" fill="#FAE420"/>
</svg>
