<svg width="123" height="81" viewBox="0 0 123 81" fill="none" xmlns="http://www.w3.org/2000/svg">
<path d="M4.62451 8.6805L55.2495 35.8762C56.9505 36.7875 59.151 37.2195 61.365 37.2195C63.579 37.2195 65.7795 36.7875 67.4805 35.8762L118.106 8.6805C121.406 6.90525 124.525 0 118.47 0H4.26676C-1.78799 0 1.33051 6.90525 4.62451 8.6805ZM119.638 23.5507L67.4805 50.733C65.1855 51.9345 63.579 52.0763 61.365 52.0763C59.151 52.0763 57.5445 51.9345 55.2495 50.733C52.9545 49.5315 7.10176 25.4947 3.35551 23.544C0.723011 22.167 0.750011 23.7802 0.750011 25.0222V74.25C0.750011 77.085 4.57051 81 7.50001 81H115.5C118.43 81 122.25 77.085 122.25 74.25V25.029C122.25 23.787 122.277 22.1737 119.638 23.5507Z" fill="#FAE420"/>
</svg>
