<svg width="82" height="82" viewBox="0 0 82 82" fill="none" xmlns="http://www.w3.org/2000/svg">
<path d="M41 27.4616C33.5453 27.4616 27.4617 33.5452 27.4617 40.9999C27.4617 48.4546 33.5453 54.5382 41 54.5382C48.4547 54.5382 54.5383 48.4546 54.5383 40.9999C54.5383 33.5452 48.4547 27.4616 41 27.4616ZM81.6047 40.9999C81.6047 35.3936 81.6555 29.8382 81.3406 24.2421C81.0258 17.7421 79.543 11.9733 74.7898 7.22021C70.0266 2.45693 64.268 0.984271 57.768 0.669427C52.1617 0.354583 46.6062 0.405365 41.0102 0.405365C35.4039 0.405365 29.8484 0.354583 24.2523 0.669427C17.7523 0.984271 11.9836 2.46708 7.23047 7.22021C2.46719 11.9835 0.994536 17.7421 0.679692 24.2421C0.364849 29.8483 0.41563 35.4038 0.41563 40.9999C0.41563 46.596 0.364849 52.1616 0.679692 57.7577C0.994536 64.2577 2.47735 70.0265 7.23047 74.7796C11.9938 79.5429 17.7523 81.0155 24.2523 81.3304C29.8586 81.6452 35.4141 81.5944 41.0102 81.5944C46.6164 81.5944 52.1719 81.6452 57.768 81.3304C64.268 81.0155 70.0367 79.5327 74.7898 74.7796C79.5531 70.0163 81.0258 64.2577 81.3406 57.7577C81.6656 52.1616 81.6047 46.6061 81.6047 40.9999ZM41 61.8304C29.4727 61.8304 20.1695 52.5272 20.1695 40.9999C20.1695 29.4725 29.4727 20.1694 41 20.1694C52.5273 20.1694 61.8305 29.4725 61.8305 40.9999C61.8305 52.5272 52.5273 61.8304 41 61.8304ZM62.6836 24.1811C59.9922 24.1811 57.8187 22.0077 57.8187 19.3163C57.8187 16.6249 59.9922 14.4515 62.6836 14.4515C65.375 14.4515 67.5484 16.6249 67.5484 19.3163C67.5492 19.9554 67.424 20.5884 67.1798 21.1789C66.9356 21.7695 66.5773 22.3062 66.1253 22.7581C65.6734 23.21 65.1368 23.5683 64.5462 23.8125C63.9557 24.0567 63.3227 24.1819 62.6836 24.1811Z" fill="#FAE420"/>
</svg>
