<svg width="94" height="92" viewBox="0 0 94 92" fill="none" xmlns="http://www.w3.org/2000/svg">
<path d="M46.9586 0.898197C21.3592 0.887846 0.625 21.6117 0.625 47.1904C0.625 67.4173 13.5955 84.6113 31.659 90.9257C34.0916 91.5365 33.7189 89.8078 33.7189 88.6277V80.6052C19.6719 82.2511 19.1025 72.9554 18.1605 71.4027C16.2559 68.1523 11.7529 67.3242 13.0986 65.7714C16.2973 64.1255 19.558 66.1855 23.3363 71.765C26.0691 75.8125 31.4002 75.1293 34.102 74.4564C34.692 72.0238 35.9549 69.85 37.6939 68.1627C23.1396 65.5541 17.0736 56.6724 17.0736 46.1138C17.0736 40.9898 18.7609 36.2798 22.0734 32.4808C19.9617 26.2181 22.2701 20.856 22.5807 20.0589C28.5949 19.5207 34.8473 24.3652 35.3338 24.7482C38.7498 23.8269 42.6523 23.3404 47.0207 23.3404C51.4098 23.3404 55.3227 23.8476 58.7697 24.7793C59.9394 23.889 65.7363 19.7277 71.3262 20.2349C71.6264 21.032 73.883 26.2699 71.8955 32.4498C75.2494 36.2591 76.9574 41.0105 76.9574 46.1449C76.9574 56.7242 70.85 65.6162 56.2543 68.1834C57.5045 69.4128 58.4971 70.879 59.1743 72.4964C59.8514 74.1138 60.1995 75.8499 60.1982 77.6033V89.2488C60.2811 90.1804 60.1982 91.1017 61.751 91.1017C80.0836 84.9218 93.2818 67.6037 93.2818 47.2007C93.2818 21.6117 72.5373 0.898197 46.9586 0.898197Z" fill="#FAE420"/>
</svg>
